<svg width="1043" height="242" viewBox="0 0 1043 242" fill="none" xmlns="http://www.w3.org/2000/svg">
<path d="M550.585 186.728C559.095 190.837 567.25 196.486 576.223 199.725C579.812 199.784 575.499 193.885 573.365 191.456C569.228 186.748 563.777 181.499 558.373 177.744C556.145 176.196 545.008 171.702 544.786 169.26C544.151 162.258 538.674 158.126 536.196 151.565C534.607 147.36 530.898 141.587 526.16 139.935C524.722 139.433 524.776 134.993 526.044 134.25C529.802 132.049 534.231 136.998 536.47 139.079C539.984 142.346 544.416 144.555 547.773 147.834C550.763 150.755 555.554 154.47 559.91 154.36C563.787 154.262 569.074 153.209 572.846 154.202C576.785 155.238 579.135 159.462 582.915 160.653C586.146 161.671 589.644 164.667 591.636 167.138C594.423 170.595 598.357 170.958 602.571 170.851C603.947 170.816 609.35 169.919 610.349 171.036C611.344 172.148 612.646 171.58 613.474 173.461C614.055 174.782 615.105 176.022 616.181 177.043C618.275 179.028 620.08 181.791 622.402 184.059C624.118 185.735 629.333 188.651 631.872 188.445C633.843 188.285 632.108 183.111 631.34 182.346C628.094 179.119 624.521 171.936 626.596 167.186C627.569 164.959 630.37 164.906 629.464 162.19C628.731 159.991 626.115 160.322 624.2 160.371C621.085 160.45 619.232 160.067 616.469 158.699C614.239 157.595 613.596 156.055 610.914 156.123C609.032 156.171 607.946 155.61 606.296 154.882C603.386 153.599 600.535 151.268 597.584 150.307C595.03 149.475 590.458 147.901 588.215 146.342C583.126 142.806 575.762 142.25 571.747 137.634C570.154 135.802 569.284 132.241 567.157 131.086C564.817 129.815 563.059 128.233 560.571 127.008C556.953 125.228 559.24 121.948 561.594 120.318C564.18 118.529 566.68 119.96 569.235 118.809C572.101 117.518 571.577 115.829 571.501 113.149C571.376 108.749 573.586 109.951 577.082 110.333C580.928 110.753 585.163 110.171 589.027 110.073C592.83 109.977 595.35 112.883 598.969 113.641C608.347 115.605 612.389 107.237 617.901 101.531C619.848 99.5164 623.871 96.8051 624.39 94.2783C624.721 92.6672 628.054 91.6277 629.086 90.3392C631.101 87.824 629.582 88.4166 626.607 88.492C624.939 88.5343 621.709 89.7529 620.01 90.357C617.531 91.2386 615.962 94.3048 614.24 96.0212C612.593 97.6621 610.217 98.5355 608.506 99.8168C604.316 102.955 594.733 105.706 589.382 103.57C583.516 101.229 577.492 99.5001 571.668 103.212C566.916 106.241 563.927 106.889 558.207 107.034C553.72 107.148 548.628 106.765 543.817 106.635C538.619 106.494 533.128 100.731 530.255 97.4281C528.755 95.7034 527.32 94.1064 525.799 92.4051C524.756 91.2394 524.693 88.3781 523.052 87.4662C521.222 86.4487 520.141 83.6979 518.427 82.8295C515.955 81.5769 513.877 79.0867 511.844 77.2662C509.971 75.5893 507.183 76.2383 504.762 76.2996C501.735 76.3764 499.19 75.3113 496.39 74.2198C493.453 73.0747 484.839 65.4917 484.324 62.3013C483.648 58.1084 475.126 58.7888 472.054 57.4339C467.547 55.4458 459.622 58.3758 454.716 57.6611C451.736 57.2269 450.011 55.5307 446.75 55.6133C443.151 55.7046 441.887 52.7285 439.109 50.7984C434.919 47.8864 433.907 43.6433 429.54 41.3634C427.871 40.492 424.638 39.6134 424.577 37.4568C424.491 34.4564 420.001 33.9942 418.145 32.4839C416.582 31.2127 414.236 29.3892 413.821 27.3727C413.333 25.0032 414.175 23.7645 411.616 22.5049C408.978 21.2069 404.89 21.8767 402.605 20.0592C401.474 19.1603 398.743 16.337 397.692 16.3637C395.436 16.4208 384.485 15.707 384.4 18.2286C384.197 24.2249 373.955 20.6724 374.11 26.1295C374.198 29.2491 375.73 30.0978 378.686 30.6401C380.905 31.0472 380.682 34.3807 382.093 35.0955C384.597 36.3645 382.64 39.8582 383.635 41.9325C385.044 44.8706 387.088 47.2816 388.138 50.1802C388.618 51.5054 388.532 52.6612 388.652 54.0297C388.763 55.3027 390.247 55.7693 390.355 57.0426C390.668 60.7629 394.679 61.3273 397.19 63.5758C406.026 71.486 395.76 79.1094 388.663 82.8924C384.103 85.3229 381.145 86.8031 381.654 92.408C381.787 93.8732 392.486 92.8975 394.203 92.854C398.032 92.757 399.858 94.5645 403.156 96.4472C406.479 98.3437 410.337 98.8478 413.649 100.426C414.88 101.012 413.709 102.292 415.498 102.247C421.371 102.098 423.423 98.6244 426.372 94.3308C428.08 91.8435 432.271 89.7207 434.438 87.2502C436.108 85.3474 438.284 82.5361 439.374 80.6734C440.978 77.9315 444.29 76.5737 444.422 81.2245C444.507 84.212 447.292 86.0367 447.919 88.861C448.318 90.6608 450.356 91.0531 451.041 92.7718C451.447 93.7923 451.286 95.086 451.317 96.1604C451.353 97.4507 450.907 104.28 453.167 104.348C458.473 104.508 462.204 101.827 466.886 101.708C469.165 101.65 473.721 100.682 474.18 103.815C474.549 106.331 475.679 108.818 476.058 111.408C476.352 113.411 479.464 118.466 481.456 119.506C483.969 120.818 484.843 124.411 486.954 126.412C489.236 128.576 490.707 131.162 492.817 133.522C495.398 136.407 499.233 134.185 502.216 135.363C504.637 136.32 508.058 138.229 509.592 140.355C510.449 141.543 511.809 141.803 512.543 142.997C513.43 144.44 514.177 146.32 515.455 147.464C520.812 152.26 518.355 161.847 520.494 168.262C521.749 172.027 528.427 177.954 532.142 179.682C534.658 180.853 537.577 183.585 540.393 183.845C544.314 184.207 547.022 185.007 550.585 186.728Z" fill="#DCDFE5"/>
<path d="M576.388 199.784C567.35 196.555 559.147 190.862 550.585 186.728C547.022 185.007 544.314 184.207 540.393 183.845C537.577 183.585 534.658 180.853 532.142 179.682C528.427 177.954 521.749 172.027 520.494 168.262C518.355 161.847 520.812 152.26 515.455 147.464C514.177 146.32 513.43 144.44 512.543 142.997C511.809 141.803 510.449 141.543 509.592 140.355C508.058 138.229 504.637 136.32 502.216 135.363C499.233 134.185 495.398 136.407 492.817 133.522C490.707 131.162 489.236 128.576 486.954 126.412C484.843 124.411 483.969 120.818 481.456 119.506C479.464 118.466 476.352 113.411 476.058 111.408C475.679 108.818 474.549 106.331 474.18 103.815C473.721 100.682 469.165 101.65 466.886 101.708C462.204 101.827 458.473 104.508 453.167 104.348C450.907 104.28 451.353 97.4507 451.317 96.1604C451.286 95.086 451.447 93.7923 451.041 92.7718C450.356 91.0531 448.318 90.6608 447.919 88.861C447.292 86.0367 444.507 84.212 444.422 81.2245C444.29 76.5737 440.978 77.9315 439.374 80.6734C438.284 82.5361 436.108 85.3474 434.438 87.2502C432.271 89.7207 428.08 91.8435 426.372 94.3308C423.423 98.6244 421.371 102.098 415.498 102.247C413.709 102.292 414.88 101.012 413.649 100.426C410.337 98.8478 406.479 98.3437 403.156 96.4472C399.858 94.5645 398.032 92.757 394.203 92.854C392.486 92.8975 381.787 93.8732 381.654 92.408C381.145 86.8031 384.103 85.3229 388.663 82.8924C395.76 79.1094 406.026 71.486 397.19 63.5758C394.679 61.3273 390.668 60.7629 390.355 57.0426C390.247 55.7693 388.763 55.3027 388.652 54.0297C388.532 52.6612 388.618 51.5054 388.138 50.1802C387.088 47.2816 385.044 44.8706 383.635 41.9325C382.64 39.8582 384.597 36.3645 382.093 35.0955C380.682 34.3807 380.905 31.0472 378.686 30.6401C375.73 30.0978 374.198 29.2491 374.11 26.1295C373.955 20.6724 384.197 24.2249 384.4 18.2286C384.485 15.707 395.436 16.4208 397.692 16.3637C398.743 16.337 401.474 19.1603 402.605 20.0592C404.89 21.8767 408.978 21.2069 411.616 22.5049C414.175 23.7645 413.333 25.0032 413.821 27.3727C414.236 29.3892 416.582 31.2127 418.145 32.4839C420.001 33.9942 424.491 34.4564 424.577 37.4568C424.638 39.6134 427.871 40.492 429.54 41.3634C433.907 43.6433 434.919 47.8864 439.109 50.7984C441.887 52.7285 443.151 55.7046 446.75 55.6133C450.011 55.5307 451.736 57.2269 454.716 57.6611C459.622 58.3758 467.547 55.4458 472.054 57.4339C475.126 58.7888 483.648 58.1084 484.324 62.3013C484.839 65.4917 493.453 73.0747 496.39 74.2198C499.19 75.3113 501.735 76.3764 504.762 76.2996C507.183 76.2383 509.971 75.5893 511.844 77.2662C513.877 79.0867 515.955 81.5769 518.427 82.8295C520.141 83.6979 521.222 86.4487 523.052 87.4662C524.693 88.3781 524.756 91.2394 525.799 92.4051C527.32 94.1064 528.755 95.7034 530.255 97.4281C533.128 100.731 538.619 106.494 543.817 106.635C548.628 106.765 553.72 107.148 558.207 107.034C563.927 106.889 566.916 106.241 571.668 103.212C577.492 99.5001 583.516 101.229 589.382 103.57C594.733 105.706 604.316 102.955 608.506 99.8168C610.217 98.5355 612.593 97.6621 614.24 96.0212C615.962 94.3048 617.531 91.2386 620.01 90.357C621.709 89.7529 624.939 88.5343 626.607 88.492C629.582 88.4166 631.101 87.824 629.086 90.3392C628.054 91.6277 624.721 92.6672 624.39 94.2783C623.871 96.8051 619.847 99.5164 617.901 101.531C612.389 107.237 608.347 115.605 598.969 113.641C595.35 112.883 592.83 109.977 589.027 110.073C585.163 110.171 580.928 110.753 577.082 110.333C573.586 109.951 571.376 108.749 571.501 113.149C571.577 115.829 572.101 117.518 569.235 118.809C566.68 119.96 564.18 118.529 561.594 120.318C559.24 121.948 556.953 125.228 560.571 127.008C563.059 128.233 564.817 129.815 567.157 131.086C569.284 132.241 570.154 135.802 571.747 137.634C575.762 142.25 583.126 142.806 588.215 146.342C590.458 147.901 595.03 149.475 597.584 150.307C600.535 151.268 603.386 153.599 606.296 154.882C607.946 155.61 609.032 156.171 610.914 156.123C613.596 156.055 614.239 157.595 616.469 158.699C619.232 160.067 621.085 160.45 624.2 160.371C626.115 160.322 628.731 159.991 629.464 162.19C630.37 164.906 627.569 164.959 626.596 167.186C624.521 171.936 628.094 179.119 631.34 182.346C632.108 183.111 633.843 188.285 631.872 188.445C629.333 188.651 624.118 185.735 622.402 184.059C620.08 181.791 618.275 179.028 616.181 177.043C615.105 176.022 614.055 174.782 613.474 173.461C612.646 171.58 611.344 172.148 610.349 171.036C609.35 169.919 603.947 170.816 602.571 170.851C598.357 170.958 594.423 170.595 591.636 167.138C589.644 164.667 586.146 161.671 582.915 160.653C579.135 159.462 576.785 155.238 572.846 154.202C569.074 153.209 563.787 154.262 559.91 154.36C555.554 154.47 550.763 150.755 547.773 147.834C544.416 144.555 539.984 142.346 536.47 139.079C534.231 136.998 529.802 132.049 526.044 134.25C524.776 134.993 524.722 139.433 526.16 139.935C530.898 141.587 534.607 147.36 536.196 151.565C538.674 158.126 544.151 162.258 544.787 169.26C545.008 171.702 556.145 176.196 558.373 177.744C563.777 181.499 569.228 186.748 573.365 191.456C575.917 194.361 581.585 202.229 573.128 198.932C571.032 198.115 569.038 197.227 566.96 196.924C564.06 196.501 562.902 194.013 560.05 194.085" stroke="#DCDFE5" stroke-linecap="round" stroke-linejoin="round"/>
<path d="M1025.12 200.975C1030.4 204.363 1034.38 209.394 1038.73 213.905C1038.82 213.953 1038.92 213.996 1039.02 214.035C1041.86 215.143 1040.58 214.755 1039.18 214.368C1038.83 214.27 1038.47 214.173 1038.17 214.099C1031.86 212.569 1026.66 208.47 1021.8 204.115C1017.58 200.338 1012.23 198.049 1007.33 194.804C1004.31 192.8 1001.18 190.283 998.557 187.938C995.53 185.228 991.237 186.131 988.076 184.341C983.253 181.611 982.06 175.423 976.807 173.591C974.286 172.712 973.74 169.112 972.233 167.595C969.837 165.182 965.27 166.243 962.042 166.325L952.343 166.571C949.19 166.651 947.526 165.813 944.623 165.281C940.73 164.566 928.931 168.06 928.797 163.347C928.708 160.222 929.175 158.674 926.997 156.941C924.277 154.778 924.108 154.501 920.454 154.391C919.901 154.374 921.137 149.942 921.1 148.644L921.099 148.619C921.056 147.086 920.933 142.755 922.982 142.145C925.295 141.457 927.422 141.482 929.347 139.988C930.712 138.928 932.859 135.835 930.755 134.223C928.256 132.306 926.269 132.087 923.058 132.168C919.996 132.246 918.058 128.475 914.868 128.556C909.621 128.689 903.431 127.586 899.577 131.235C894.769 135.788 891.725 138.31 884.775 138.486L875.526 138.721C874.436 138.748 872.99 139.026 871.932 138.77C870.829 138.502 871.645 137.392 869.825 137.337C868.743 137.305 868.439 135.904 867.357 135.872C866.152 135.835 864.925 135.933 863.72 135.964C861.64 136.017 860.812 133.471 858.828 132.989C857.722 132.721 858.546 131.607 856.72 131.557C855.254 131.518 855.303 130.065 853.848 130.102C851.247 130.168 853.339 126.438 853.303 125.15C853.181 120.846 853.358 121.303 857.246 121.612C859.623 121.8 861.373 123.035 863.755 122.975L878.932 122.59C882.634 122.496 887.26 118.968 890.646 117.37C893.37 116.084 896.578 116.031 899.592 115.954C902.015 115.893 905.65 115.177 907.618 116.939C909.604 118.717 913.008 117.906 915.822 117.835C921.878 117.682 930.953 120.589 934.38 125.769C937.776 130.903 943.698 138.555 949.561 141.386C952.784 142.942 954.025 145.667 957.622 146.742C960.794 147.691 963.483 148.771 966.431 150C969.64 151.337 972.851 152.988 976.26 154.335C978.633 155.272 982.902 154.825 984.861 156.578C986.63 158.163 987.621 160.691 989.829 162.225C992.253 163.91 993.592 166.571 993.671 169.343C993.87 176.37 997.282 181.724 1005.02 182.851C1007.48 183.209 1010.81 185.399 1013.6 187.966C1016.94 189.314 1018.76 192.013 1020.47 195.405C1020.76 195.981 1021.25 197.129 1021.81 198.317C1023.02 199.435 1024.31 200.45 1025.12 200.975Z" fill="#DCDFE5"/>
<path d="M1041.93 217.017C1036.21 211.889 1031.66 205.172 1025.12 200.975C1023.38 199.856 1019.5 196.517 1018.83 194.682C1017.41 190.741 1009.67 183.528 1005.02 182.851C997.282 181.724 993.87 176.37 993.671 169.343C993.592 166.571 992.253 163.91 989.829 162.225C987.621 160.691 986.63 158.163 984.861 156.578C982.902 154.825 978.633 155.272 976.26 154.335C972.851 152.988 969.64 151.337 966.431 150C963.483 148.771 960.794 147.691 957.622 146.742C954.025 145.667 952.784 142.942 949.561 141.386C943.698 138.555 937.776 130.903 934.38 125.769C930.953 120.589 921.878 117.682 915.822 117.835C913.008 117.906 909.604 118.717 907.618 116.939C905.65 115.177 902.015 115.893 899.592 115.954C896.578 116.031 893.37 116.084 890.646 117.37C887.26 118.968 882.634 122.496 878.932 122.59C873.873 122.718 868.814 122.847 863.755 122.975C861.373 123.035 859.623 121.8 857.246 121.612C853.358 121.303 853.181 120.846 853.303 125.15C853.339 126.438 851.247 130.168 853.848 130.102C855.303 130.065 855.254 131.518 856.72 131.557C858.546 131.607 857.722 132.721 858.828 132.989C860.812 133.471 861.64 136.017 863.72 135.964C864.925 135.933 866.152 135.835 867.357 135.872C868.439 135.904 868.743 137.305 869.825 137.337C871.645 137.392 870.829 138.502 871.932 138.77C872.99 139.026 874.436 138.748 875.526 138.721C878.609 138.643 881.692 138.565 884.775 138.486C891.725 138.31 894.769 135.788 899.577 131.235C903.431 127.586 909.621 128.689 914.868 128.556C918.058 128.475 919.996 132.246 923.058 132.168C926.269 132.087 928.256 132.306 930.755 134.223C932.859 135.835 930.712 138.928 929.347 139.988C927.422 141.482 925.295 141.457 922.982 142.145C920.921 142.758 921.057 147.133 921.1 148.644C921.137 149.942 919.901 154.374 920.454 154.391C924.108 154.501 924.277 154.778 926.997 156.941C929.175 158.674 928.708 160.222 928.797 163.347C928.931 168.06 940.73 164.566 944.623 165.281C947.526 165.813 949.19 166.651 952.343 166.571C955.576 166.489 958.809 166.407 962.042 166.325C965.27 166.243 969.837 165.182 972.233 167.595C973.74 169.112 974.286 172.712 976.807 173.591C982.06 175.423 983.253 181.611 988.076 184.341C991.237 186.131 995.53 185.228 998.557 187.938C1001.18 190.283 1004.31 192.8 1007.33 194.804C1012.23 198.049 1017.58 200.338 1021.8 204.115C1026.66 208.47 1031.86 212.569 1038.17 214.099C1039.67 214.464 1042.58 215.423 1039.02 214.035C1037.45 213.424 1037.07 211.734 1035.48 211.239C1033.18 210.522 1032.25 209.818 1030.8 207.792C1029.22 205.578 1026.61 203.342 1024.17 202.103C1023.06 201.539 1021.18 196.799 1020.47 195.405C1018.32 191.143 1016 187.976 1010.71 187.206C1005.32 186.42 1000.68 182.154 995.656 182.281" stroke="#DCDFE5" stroke-linecap="round" stroke-linejoin="round"/>
<path d="M844.894 132.181C843.65 132.824 842.736 133.857 842.315 135.403C839.396 146.137 825.57 140.088 819.113 145.881C816.479 148.244 814.26 151.196 809.59 149.136C806.038 147.569 803.134 144.475 799.623 143.106C792.876 140.476 784.1 149.5 787.662 155.464C789.31 158.222 791.212 160.203 791.308 163.606C791.4 166.838 790.681 169.995 790.776 173.34C790.855 176.103 793.775 177.471 795.613 179.117C799.165 182.297 800.024 185.72 800.156 190.335C800.197 191.793 799.585 195.694 800.699 196.815C801.957 198.082 802.623 199.117 803.288 200.952C804.202 203.474 805.999 205.26 806.934 207.523C807.71 209.4 809.351 209.872 810.28 211.428C811.436 213.362 814.905 215.743 815.449 217.791C816.523 221.843 820.788 225.09 814.083 225.084C810.421 225.081 805.119 222.062 802.607 219.687C799.221 216.488 795.365 213.953 792.279 210.441C789.777 207.593 788.219 206.827 784.445 206.735C779.931 206.625 774.941 201.824 772.142 199.109C769.17 196.227 766.48 192.913 764.145 189.677C760.759 184.982 756.535 180.556 756.034 174.602C755.75 171.239 751.01 171.675 748.979 169.857C746.505 167.642 743.078 166.774 740.386 164.727C738.072 162.967 732.313 157.955 733.806 154.537C735.159 151.44 736.372 149.794 735.767 146.041C734.814 140.136 729.072 134.13 725.632 129.362C724.006 127.107 723.138 124.658 721.749 122.372C720.509 120.33 718.225 118.275 717.265 116.373C715.91 113.689 712.991 111.443 712.896 108.08C712.761 103.331 710.89 102.527 708.241 99.2416C705.593 95.9565 706.862 92.692 708.692 89.8073C709.881 87.9333 711.725 86.8339 712.409 84.6196C713.329 81.6459 714.387 78.3988 715.023 75.3851C715.462 73.3019 717.815 64.5242 722.274 68.0705C724.042 69.4771 723.547 70.012 724.045 71.8882C724.462 73.4597 726.348 74.581 727.387 75.666C729.533 77.9063 734.954 77.9501 737.924 78.0306C742.771 78.1619 739.359 68.9849 738.328 66.9421C736.709 63.7353 736.643 61.4114 736.534 57.5741L736.53 57.4374C736.389 52.469 731.028 50.9603 726.505 52.5131C724.43 53.2254 722.125 54.7464 719.875 54.8034C718.128 54.8477 717.992 51.9868 717.332 50.7082C715.366 46.8961 711.581 50.2806 708.851 51.0929C704.709 52.3252 701.223 54.0688 697.474 55.5409C695.37 56.3672 693.916 58.8476 691.65 59.2964C689.898 59.6435 687.835 59.4355 686.039 59.4811C682.978 59.5587 691.523 54.6508 692.941 54.1278C697.996 52.2627 701.717 49.1427 705.919 45.9465C711.144 41.972 716.811 38.8831 722.096 34.9251C725.785 32.1625 732.058 25.4289 737.143 28.3891C739.238 29.6088 739.102 30.6316 741.833 30.5623C744.2 30.5024 744.892 30.5083 746.726 31.9664C750.442 34.9226 752.904 41.7973 755.432 45.8376C758.071 50.0546 760.623 51.6463 765.702 53.0478C767.915 53.6583 769.08 56.1945 770.878 56.5244C772.775 56.8726 775.611 56.9281 776.995 58.3219C778.677 60.0153 780.729 60.1111 782.143 62.3935C783.781 65.0362 785.449 68.1022 787.406 70.4946C789.409 72.943 793.599 73.5566 795.703 76.2691C797.425 78.4901 796.842 81.9813 798.387 83.7564C802.411 88.3824 809.18 90.657 814.742 93.2317C817.77 94.6337 819.41 97.3011 822.01 99.1597C824.482 100.928 826.872 103.456 829.289 105.512C830.973 106.944 832.859 108.367 834.663 109.62C836.612 110.974 839.01 110.63 841.193 111.704C844.757 113.458 849.123 115.503 851.322 118.706C853.753 122.247 855.706 122.415 859.872 122.309L866.517 122.141C868.835 122.082 870.202 123.173 872.306 123.48C877.302 124.207 880.391 121.389 884.991 123.965C886.413 124.761 890.134 125.553 890.523 127.305C891.335 130.962 885.739 130.822 883.48 130.879C880.888 130.945 878.25 130.883 875.668 131.077C872.07 131.347 870.34 134.259 867.344 135.448C867.164 135.519 866.96 135.588 866.734 135.655C863.353 136.654 855.185 137.065 852.777 135.138C850.497 133.312 847.615 133.455 845.011 132.236C844.973 132.218 844.933 132.199 844.894 132.181Z" fill="#DCDFE5"/>
<path d="M867.356 135.872C862.949 134.39 844.7 126.634 842.315 135.403C839.396 146.137 825.57 140.088 819.113 145.881C816.479 148.244 814.26 151.196 809.59 149.136C806.038 147.569 803.134 144.475 799.623 143.106C792.876 140.476 784.1 149.5 787.662 155.464C789.31 158.222 791.212 160.203 791.308 163.606C791.4 166.838 790.681 169.995 790.776 173.34C790.855 176.103 793.775 177.471 795.613 179.117C799.165 182.297 800.024 185.72 800.156 190.335C800.197 191.793 799.585 195.694 800.699 196.815C801.957 198.082 802.623 199.117 803.288 200.952C804.202 203.474 805.999 205.26 806.934 207.523C807.71 209.4 809.351 209.872 810.28 211.428C811.436 213.362 814.905 215.743 815.449 217.791C816.523 221.843 820.788 225.09 814.083 225.084C810.421 225.081 805.119 222.062 802.607 219.687C799.221 216.488 795.365 213.953 792.279 210.441C789.777 207.593 788.219 206.827 784.445 206.735C779.931 206.625 774.941 201.824 772.142 199.109C769.17 196.227 766.48 192.913 764.145 189.677C760.759 184.982 756.535 180.556 756.034 174.602C755.75 171.239 751.01 171.675 748.979 169.857C746.505 167.642 743.078 166.774 740.386 164.727C738.072 162.967 732.313 157.955 733.806 154.537C735.159 151.44 736.372 149.794 735.767 146.041C734.814 140.136 729.072 134.13 725.632 129.362C724.006 127.107 723.138 124.658 721.749 122.372C720.509 120.33 718.225 118.275 717.265 116.373C715.91 113.689 712.991 111.443 712.896 108.08C712.761 103.331 710.89 102.527 708.241 99.2416C705.593 95.9565 706.862 92.692 708.692 89.8073C709.881 87.9333 711.725 86.8339 712.409 84.6196C713.329 81.6459 714.387 78.3988 715.023 75.3851C715.462 73.3019 717.815 64.5242 722.274 68.0705C724.042 69.4771 723.547 70.012 724.045 71.8882C724.462 73.4597 726.348 74.581 727.387 75.666C729.533 77.9063 734.954 77.9501 737.924 78.0306C742.771 78.1619 739.359 68.9849 738.328 66.9421C736.69 63.6974 736.642 61.3565 736.53 57.4374C736.389 52.469 731.028 50.9603 726.505 52.5131C724.43 53.2254 722.125 54.7464 719.875 54.8034C718.128 54.8477 717.992 51.9868 717.332 50.7082C715.366 46.8961 711.581 50.2806 708.851 51.0929C704.709 52.3252 701.223 54.0688 697.474 55.5409C695.37 56.3672 693.916 58.8476 691.65 59.2964C689.898 59.6435 687.835 59.4355 686.039 59.4811C682.978 59.5587 691.523 54.6508 692.941 54.1278C697.996 52.2627 701.717 49.1427 705.919 45.9465C711.144 41.972 716.811 38.8831 722.096 34.9251C725.785 32.1625 732.058 25.4289 737.143 28.3891C739.238 29.6088 739.102 30.6316 741.833 30.5623C744.2 30.5024 744.892 30.5083 746.726 31.9664C750.442 34.9226 752.904 41.7973 755.432 45.8376C758.071 50.0546 760.623 51.6463 765.702 53.0478C767.915 53.6583 769.08 56.1945 770.878 56.5244C772.775 56.8726 775.611 56.9281 776.995 58.3219C778.677 60.0153 780.729 60.1111 782.143 62.3935C783.781 65.0362 785.449 68.1022 787.406 70.4946C789.409 72.943 793.599 73.5566 795.703 76.2691C797.425 78.4901 796.842 81.9813 798.387 83.7564C802.411 88.3824 809.18 90.657 814.742 93.2317C817.77 94.6337 819.41 97.3011 822.01 99.1597C824.482 100.928 826.872 103.456 829.289 105.512C830.973 106.944 832.859 108.367 834.663 109.62C836.612 110.974 839.01 110.63 841.193 111.704C844.757 113.458 849.123 115.503 851.322 118.706C853.753 122.247 855.706 122.415 859.872 122.309C862.087 122.253 864.302 122.197 866.517 122.141C868.835 122.082 870.202 123.173 872.306 123.48C877.302 124.207 880.391 121.389 884.991 123.965C886.413 124.761 890.134 125.553 890.523 127.305C891.335 130.962 885.739 130.822 883.48 130.879C880.888 130.945 878.25 130.883 875.668 131.077C872.07 131.347 870.34 134.259 867.344 135.448C864.469 136.589 855.345 137.194 852.777 135.138C850.497 133.312 847.615 133.455 845.011 132.236C842.887 131.242 839.173 128.946 836.787 129.006C832.087 129.125 827.387 129.245 822.688 129.364" stroke="#DCDFE5" stroke-linecap="round" stroke-linejoin="round"/>
<path d="M144.185 146.58C147.41 144.211 150.188 142.039 153.056 139.339C154.642 137.846 158.222 138.429 160.272 138.377C165.558 138.243 170.341 138.482 175.481 137.991C181.267 137.439 182.534 132.768 185.774 129.156C189.435 125.076 194.38 121.568 200.212 120.995C206.086 120.418 210.364 115.439 215.868 113.756C220.067 112.473 222.66 108.856 225.549 105.976C228.264 103.27 231.771 101.463 235.277 99.8398C240.524 97.4115 247.975 97.1543 252.417 93.1695C255.13 90.7348 258.819 88.7033 261.105 85.9339C263.04 83.5884 265.779 80.5267 268.71 79.332C273.394 77.4229 279.871 74.6687 283.611 71.3326C287.438 67.9194 289.958 62.5454 294.383 59.9735C305.379 53.582 314.375 45.3561 323.431 36.8052C326.94 33.4916 334.876 35.1251 339.695 34.8341C342.956 34.6371 345.893 32.6368 348.882 32.2627C352.068 31.8642 355.389 31.259 358.555 30.6318C361.349 30.0784 364.321 30.4159 367.162 30.2405C369.93 30.0696 372.471 27.9723 374.765 26.7566C376.935 25.6065 378.511 23.4185 380.781 22.2736C382.191 21.5619 384.965 21.9944 386.548 21.9542" stroke="#DCDFE5" stroke-linecap="round" stroke-linejoin="round"/>
<path d="M622.897 92.3545C625.995 90.0793 630.032 88.4721 632.945 86.2103C634.663 84.8766 635.689 82.8218 637.864 81.8418C639.886 80.9308 639.721 80.2357 642.355 80.169C644.59 80.1123 646.138 79.3198 648.078 78.2917C650.432 77.0441 652.217 75.8968 654.487 74.7515C656.888 73.5403 658.603 71.5999 661.01 70.3856C666.005 67.8661 671.313 67.6398 676.411 65.4482C681.842 63.1136 683.96 58.7233 688.635 55.2215C689.774 54.3688 689.811 52.9381 691.069 52.1285C692.489 51.2144 694.31 50.917 695.775 49.9739C697.611 48.7922 700.198 46.874 702.467 46.6863C706.894 46.3201 713.098 43.5238 717.188 42.026C721.606 40.408 727.214 37.4847 731.908 37.3657" stroke="#DCDFE5" stroke-linecap="round" stroke-linejoin="round"/>
<path d="M184.437 158.534C189.038 160.777 193.62 163.06 198.275 165.203L199.269 165.94C197.256 165.899 196.108 167.309 194.184 167.271C191.736 167.222 189.509 167.045 187.119 166.706C185.811 166.52 184.412 166.599 183.092 166.573C181.51 166.541 179.424 166.165 178.16 167.31C176.693 168.639 176.383 171.39 175.616 173.096C174.896 174.698 174.262 178.998 171.847 179.004C170.234 179.008 169.12 178.15 167.811 177.372C166.482 176.582 165.117 175.818 163.735 175.022C161.597 173.792 159.399 172.747 157.24 171.55C156.069 170.901 154.856 170.175 153.543 169.805C151.962 169.359 150.637 168.25 149.127 167.607C145.711 166.153 142.701 163.826 139.651 161.781L139.602 161.748C136.673 159.784 133.918 157.937 130.729 156.35C129.827 155.901 128.691 154.777 127.676 154.724C126.771 154.676 125.858 154.688 124.952 154.67C122.956 154.63 120.499 154.412 118.657 153.589C116.886 152.798 115.052 152.694 113.767 151.197C111.57 148.636 108.976 146.352 107.028 143.594C105.567 141.526 103.545 139.878 101.873 137.973C100.445 136.346 98.4046 134.731 96.6095 133.451C95.0771 132.358 93.4436 131.304 91.7328 130.475C91.091 130.164 90.4575 129.86 89.786 129.614C89.4905 129.506 90.0022 129.28 89.5891 129C86.7528 127.073 81.1651 125.577 77.7449 126.748C72.8841 128.411 67.6194 130.105 64.0483 133.877C62.2567 135.769 60.5224 137.696 58.3672 139.256C56.5807 140.549 54.9097 141.608 53.2682 143.094C50.9083 145.232 48.3239 147.359 46.4179 149.896C46.3261 150.018 46.2427 150.26 46.2786 150.375C46.4569 150.228 46.6305 150.107 46.7937 150.049C46.8974 150.012 46.5847 150.334 46.5623 150.35C46.3857 150.474 46.3034 150.455 46.2786 150.375C45.9058 150.683 45.5125 151.104 45.1507 151.303C43.305 152.319 41.4472 153.306 39.6066 154.324C38.5176 154.925 37.9528 155.993 36.915 156.631C35.291 157.63 33.9587 158.971 32.5655 160.232C28.9045 163.548 25.5502 166.946 22.1013 170.398C21.0047 171.495 19.7155 172.388 18.6194 173.512C17.8733 174.277 17.6875 174.311 17.3052 174.507C14.9986 175.692 12.7256 176.929 10.6177 178.42C8.96769 179.588 7.21348 180.447 5.33209 181.18C4.92316 181.34 3.20554 182.084 2.82526 181.502C2.51468 181.027 3.08547 180.919 3.23841 180.608C3.98356 179.096 6.07624 178.176 7.30652 177.028C7.86473 176.507 8.25329 175.716 8.75339 175.12C9.95394 173.689 11.5161 172.565 12.8423 171.235C14.9084 169.164 17.6074 167.548 19.807 165.603C21.9149 163.74 24.3875 162.234 26.4682 160.35C27.2677 159.626 27.7869 158.648 28.5732 157.898C29.763 156.762 31.0609 155.549 32.0667 154.266C33.9822 151.823 35.4948 148.884 38.0305 146.916C43.1052 142.98 48.0789 138.989 52.7414 134.607C53.9197 133.5 54.9009 132.211 56.0919 131.092C57.4201 129.845 58.8342 128.692 60.2027 127.486C62.1353 125.783 64.9448 123.909 66.0364 122.19C68.8591 117.744 73.4855 114.396 77.7381 111.319L77.8808 111.216C78.1665 111.009 78.6263 110.435 79.0603 110.59C79.0657 110.592 79.0708 110.594 79.0757 110.596C79.3775 110.046 80.9776 109.17 81.3724 108.925C83.1496 107.818 84.5923 106.905 86.1105 105.53C89.0081 102.906 92.3819 107.445 94.5984 109.042C96.3012 110.268 98.0705 111.451 99.8271 112.608C101.039 113.407 102.041 114.48 103.395 115.08C104.499 115.571 105.346 115.999 106.602 116.086C107.312 116.136 109.336 115.794 108.735 116.155C108.118 116.526 110.715 118.195 111.001 118.379L111.017 118.389C112.616 119.42 113.882 120.787 115.519 121.769C118.63 123.636 121 126.343 124.011 128.266C126.615 129.929 128.895 132.146 131.614 133.67C132.283 134.046 132.742 134.528 133.546 134.545C134.507 134.564 135.168 134.693 136.062 135.072C138.27 136.007 140.359 136.209 142.443 137.375C145.546 139.111 148.416 141.454 151.351 143.442C154.603 145.644 158.358 147.022 161.584 149.297C163.137 150.392 164.702 151.334 166.465 152.1C166.885 152.283 167.358 152.282 167.775 152.524C169.164 153.331 170.962 153.44 172.506 153.852C173.581 154.139 174.757 154.945 175.88 154.967C176.711 154.984 178.049 155.778 178.875 156.035C180.821 156.642 182.629 157.652 184.437 158.534Z" fill="#DCDFE5"/>
<path d="M198.275 165.203C193.62 163.06 189.038 160.777 184.437 158.534C182.629 157.652 180.821 156.642 178.875 156.035C178.049 155.778 176.711 154.984 175.88 154.967C174.757 154.945 173.581 154.139 172.506 153.852C170.962 153.44 169.164 153.331 167.775 152.524C167.358 152.282 166.885 152.283 166.465 152.1C164.702 151.334 163.137 150.392 161.584 149.297C158.358 147.022 154.603 145.644 151.351 143.442C148.416 141.454 145.546 139.111 142.443 137.375C140.359 136.209 138.27 136.007 136.062 135.072C135.168 134.693 134.507 134.564 133.546 134.545C132.742 134.528 132.283 134.046 131.614 133.67C128.895 132.146 126.615 129.929 124.011 128.266C121 126.343 118.63 123.636 115.519 121.769C113.882 120.787 112.616 119.42 111.017 118.389C110.831 118.27 108.105 116.535 108.735 116.155C109.336 115.794 107.312 116.136 106.602 116.086C105.346 115.999 104.499 115.571 103.395 115.08C102.041 114.48 101.039 113.407 99.8271 112.608C98.0705 111.451 96.3012 110.268 94.5984 109.042C92.3819 107.445 89.0081 102.906 86.1105 105.53C84.5923 106.905 83.1496 107.818 81.3724 108.925C80.9458 109.19 79.1116 110.191 79.0293 110.722C79.0217 110.771 79.2659 110.663 79.0603 110.59C78.6263 110.435 78.1665 111.009 77.8808 111.216C73.5892 114.322 68.8907 117.694 66.0364 122.19C64.9448 123.909 62.1353 125.783 60.2027 127.486C58.8342 128.692 57.4201 129.845 56.0919 131.092C54.9009 132.211 53.9197 133.5 52.7414 134.607C48.0789 138.989 43.1052 142.98 38.0305 146.916C35.4948 148.884 33.9822 151.823 32.0667 154.266C31.0609 155.549 29.763 156.762 28.5732 157.898C27.7869 158.648 27.2677 159.626 26.4682 160.35C24.3875 162.234 21.9149 163.74 19.807 165.603C17.6074 167.548 14.9084 169.164 12.8423 171.235C11.5161 172.565 9.95394 173.689 8.75339 175.12C8.25329 175.716 7.86473 176.507 7.30652 177.028C6.07624 178.176 3.98356 179.096 3.23841 180.608C3.08547 180.919 2.51468 181.027 2.82526 181.502C3.20554 182.084 4.92316 181.34 5.33209 181.18C7.21348 180.447 8.96769 179.588 10.6177 178.42C12.7256 176.929 14.9986 175.692 17.3052 174.507C17.6875 174.311 17.8733 174.277 18.6194 173.512C19.7155 172.388 21.0047 171.495 22.1013 170.398C25.5502 166.946 28.9045 163.548 32.5655 160.232C33.9587 158.971 35.291 157.63 36.915 156.631C37.9528 155.993 38.5176 154.925 39.6066 154.324C41.4472 153.306 43.305 152.319 45.1507 151.303C45.6856 151.009 46.2895 150.228 46.7937 150.049C46.8974 150.012 46.5847 150.334 46.5623 150.35C46.1309 150.653 46.2625 150.103 46.4179 149.896C48.3239 147.359 50.9083 145.232 53.2682 143.094C54.9097 141.608 56.5807 140.549 58.3672 139.256C60.5224 137.696 62.2567 135.769 64.0483 133.877C67.6194 130.105 72.8841 128.411 77.7449 126.748C81.1651 125.577 86.7528 127.073 89.5891 129C90.0022 129.28 89.4905 129.506 89.786 129.614C90.4575 129.86 91.091 130.164 91.7328 130.475C93.4436 131.304 95.0771 132.358 96.6096 133.451C98.4046 134.731 100.445 136.346 101.873 137.973C103.545 139.878 105.567 141.526 107.028 143.594C108.976 146.352 111.57 148.636 113.767 151.197C115.052 152.694 116.886 152.798 118.657 153.589C120.499 154.412 122.956 154.63 124.952 154.67C125.858 154.688 126.771 154.676 127.676 154.724C128.691 154.777 129.827 155.901 130.729 156.35C133.936 157.946 136.704 159.805 139.651 161.781C142.701 163.826 145.711 166.153 149.127 167.607C150.637 168.25 151.962 169.359 153.543 169.805C154.856 170.175 156.069 170.901 157.24 171.55C159.399 172.747 161.597 173.792 163.735 175.022C165.117 175.818 166.482 176.582 167.811 177.372C169.12 178.15 170.234 179.008 171.847 179.004C174.262 178.998 174.896 174.698 175.616 173.096C176.383 171.39 176.693 168.639 178.16 167.31C179.424 166.165 181.51 166.541 183.092 166.573C184.412 166.599 185.811 166.52 187.119 166.706C189.509 167.045 191.736 167.222 194.184 167.271C196.108 167.309 197.256 165.899 199.269 165.94L198.275 165.203Z" stroke="#DCDFE5" stroke-linecap="round" stroke-linejoin="round"/>
<path d="M199.983 167.056C200.743 167.156 201.489 167.233 202.213 167.282C203.388 167.361 206.69 167.566 207.399 168.44C208.905 170.298 212.347 171.208 214.383 172.448C217.235 174.185 220.246 175.73 222.997 177.543C224.166 178.313 227.701 180.461 227.947 181.861C228.07 182.561 232.392 186.724 233.089 186.848C233.408 186.904 233.739 186.949 234.079 186.985C234.936 186.926 235.8 186.829 236.353 186.991C236.471 187.025 236.587 187.062 236.703 187.102C241.199 187.117 246.497 186.519 249.751 189.016C251.859 190.633 253.843 192.353 255.927 194.023C258.448 196.043 259.606 195.855 262.958 195.921C265.881 195.98 276.326 194.644 278.087 196.379C278.111 196.403 269.554 196.756 268.193 196.729C263.148 196.629 259.22 196.438 254.456 195.049C250.79 193.98 247.487 192.981 244.112 191.483C241.642 190.386 239.381 188.023 236.703 187.102C235.787 187.099 234.905 187.07 234.079 186.985C233.046 187.055 232.023 187.069 231.566 186.505C231.02 185.831 228.74 185.77 227.865 185.532C225.771 184.964 227.251 184.478 226.258 183.39C223.302 180.153 220.55 176.82 216.196 174.594C211.372 172.128 207.23 170.899 201.762 170.79C200.243 170.759 197.54 171.197 196.184 170.522C194.338 169.604 192.716 168.19 190.663 167.716C190.179 167.605 186.682 166.318 186.69 165.918C186.705 165.277 191.829 165.669 192.404 165.68C192.47 165.681 192.535 165.684 192.599 165.687C194.225 165.769 195.539 166.446 197.391 166.483C198.89 166.513 199.459 166.725 199.983 167.056Z" fill="#DCDFE5"/>
<path d="M188.864 164.906C193.01 165.721 197.986 166.998 202.213 167.282C203.388 167.361 206.69 167.566 207.399 168.44C208.905 170.298 212.347 171.208 214.383 172.448C217.235 174.185 220.246 175.73 222.997 177.543C224.166 178.313 227.701 180.461 227.947 181.861C228.07 182.561 232.392 186.724 233.089 186.848C237.98 187.718 245.56 185.8 249.751 189.016C251.859 190.633 253.843 192.353 255.927 194.023C258.448 196.043 259.606 195.855 262.958 195.921C265.881 195.98 276.326 194.644 278.087 196.379C278.111 196.403 269.554 196.756 268.193 196.729C263.148 196.629 259.22 196.438 254.456 195.049C250.79 193.98 247.487 192.981 244.112 191.483C241.536 190.339 239.186 187.817 236.353 186.991C235.132 186.635 232.403 187.537 231.566 186.505C231.02 185.831 228.74 185.77 227.865 185.532C225.771 184.964 227.251 184.478 226.258 183.39C223.302 180.153 220.55 176.82 216.196 174.594C211.372 172.128 207.23 170.899 201.762 170.79C200.243 170.759 197.54 171.197 196.184 170.522C194.338 169.604 192.716 168.19 190.663 167.716C190.179 167.605 186.682 166.318 186.69 165.918C186.705 165.277 191.829 165.669 192.404 165.68C194.122 165.714 195.466 166.444 197.391 166.483C200.008 166.535 199.789 167.142 201.453 167.97" stroke="#DCDFE5" stroke-linecap="round" stroke-linejoin="round"/>
<path d="M183.358 155.98C183.187 155.938 183.019 155.893 182.854 155.846C183.247 155.864 183.35 155.911 183.358 155.98C186.302 156.705 189.962 156.689 192.933 156.894C195.856 157.095 198.545 158.689 201.558 158.879C206.922 159.218 212.484 159.64 217.769 159.879C219.873 159.974 221.926 160.767 223.571 162.003C224.723 162.868 225.242 163.744 226.182 164.78C227.237 165.942 229.177 164.798 230.264 165.703C230.825 166.171 233.561 166.037 234.397 166.215C235.03 166.351 236.221 167.124 236.867 167.45C237.521 167.779 237.397 168.099 237.365 168.743C237.341 169.211 237.006 170.635 237.374 171.018C237.735 171.392 238.932 171.131 239.425 171.288C240.274 171.559 240.767 172.054 241.634 172.126C242.234 172.176 241.905 173.566 241.883 173.999C241.846 174.717 240.555 176.963 241.198 177.631C241.635 178.085 242.183 177.456 242.578 178.166C242.837 178.632 243.684 179.067 244.075 179.475C244.911 180.344 246.316 180.218 246.856 181.373C247.323 182.371 247.246 183.554 247.255 184.611C247.257 184.937 248.238 185.331 248.38 185.844C248.518 186.338 249.616 187.763 248.705 188.074C247.938 188.336 247.329 188.359 246.505 188.299C244.947 188.187 243.698 187.375 242.114 187.303C240.663 187.237 239.742 186.716 238.452 186.133C237.15 185.544 235.441 185.822 234.156 185.14C233.291 184.682 232.522 184.304 231.657 183.846C228.999 182.436 228.443 179.115 225.939 177.59C222.7 175.617 219.168 173.24 215.6 171.804C213.806 171.083 211.991 170.076 210.319 169.261C207.73 167.998 204.609 167.363 201.671 167.126C200.066 166.997 198.02 166.434 196.475 165.975C194.474 165.382 192.596 164.744 190.875 163.565C188.948 162.245 187.442 160.895 185.935 159.235C185.242 158.472 184.588 156.972 183.601 156.53C183.083 156.298 183.371 156.103 183.358 155.98Z" fill="#DCDFE5"/>
<path d="M171.994 153.553C173.99 153.954 175.924 153.923 177.94 154.088C179.647 154.227 181.224 155.382 182.854 155.846M182.854 155.846C185.876 156.707 189.79 156.677 192.933 156.894C195.856 157.095 198.545 158.689 201.558 158.879C206.922 159.218 212.484 159.64 217.769 159.879C219.873 159.974 221.926 160.767 223.571 162.003C224.723 162.868 225.242 163.744 226.182 164.78C227.237 165.942 229.177 164.798 230.264 165.703C230.825 166.171 233.561 166.037 234.397 166.215C235.03 166.351 236.221 167.124 236.867 167.45C237.521 167.779 237.397 168.099 237.365 168.743C237.341 169.211 237.006 170.635 237.374 171.018C237.735 171.392 238.932 171.131 239.425 171.288C240.274 171.559 240.767 172.054 241.634 172.126C242.234 172.176 241.905 173.566 241.883 173.999C241.846 174.717 240.555 176.963 241.198 177.631C241.635 178.085 242.183 177.456 242.578 178.166C242.837 178.632 243.684 179.067 244.075 179.475C244.911 180.344 246.316 180.218 246.856 181.373C247.323 182.371 247.246 183.554 247.255 184.611C247.257 184.937 248.238 185.331 248.38 185.844C248.518 186.338 249.616 187.763 248.705 188.074C247.938 188.336 247.329 188.359 246.505 188.299C244.947 188.187 243.698 187.375 242.114 187.303C240.663 187.237 239.742 186.716 238.452 186.133C237.15 185.544 235.441 185.822 234.156 185.14C233.291 184.682 232.522 184.304 231.657 183.846C228.999 182.436 228.443 179.115 225.939 177.59C222.7 175.617 219.168 173.24 215.6 171.804C213.806 171.083 211.991 170.076 210.319 169.261C207.73 167.998 204.609 167.363 201.671 167.126C200.066 166.997 198.02 166.434 196.475 165.975C194.474 165.382 192.596 164.744 190.875 163.565C188.948 162.245 187.442 160.895 185.935 159.235C185.242 158.472 184.588 156.972 183.601 156.53C182.792 156.168 183.948 155.896 182.854 155.846Z" stroke="#DCDFE5" stroke-linecap="round" stroke-linejoin="round"/>
<path d="M153.075 180.75C151.744 179.493 150.664 178.074 149.681 176.591C149.186 174.612 147.448 173.486 147.201 171.503C147.025 170.083 144.591 169.751 144.591 168.112C144.591 167.151 144.148 162.995 145.389 165.338C146.021 166.532 147.503 167.862 148.833 168.421C152.891 170.124 155.656 171.503 160.398 171.503C162.674 171.503 170.508 172.838 170.694 175.818C170.801 177.533 173.74 179.517 170.041 179.517C168.947 179.517 165.522 178.997 164.821 179.825C163.312 181.606 162.211 179.233 162.211 182.736V189.072C162.211 191.619 165.939 191.17 168.084 191.229C170.505 191.296 169.046 194.858 169.425 196.469C170.162 199.6 177.249 198.985 179.504 200.168C181.77 201.357 183.674 200.632 186.03 201.127C187.489 201.433 188.553 202.606 189.466 203.635C190.537 203.932 191.236 204.791 192.483 204.791C193.173 204.791 190.905 205.115 190.416 204.654C190.112 204.366 189.799 204.01 189.466 203.635C189.409 203.619 189.351 203.605 189.292 203.592C187.062 203.124 184.678 203.288 182.44 202.805C179.423 202.153 176.401 202.325 173.304 202.325C171.795 202.325 171.039 204.057 169.679 204.791C168.657 205.343 165.622 206.158 164.966 206.777C164.226 207.476 165.448 208.49 163.842 208.49C162.711 208.49 161.939 207.763 161.268 206.949C158.279 203.318 158.948 199.688 158.948 195.065C158.948 190.707 156.127 183.633 153.075 180.75Z" fill="#DCDFE5"/>
<path d="M126.319 153.626C130.702 156.033 133.982 157.714 137.485 161.023C138.443 161.928 139.898 163.376 141.002 164.071C142.117 164.773 141.741 165.728 142.633 166.571C147.024 170.719 148.695 176.613 153.075 180.75C156.127 183.633 158.948 190.707 158.948 195.065C158.948 199.688 158.279 203.318 161.268 206.949C161.939 207.763 162.711 208.49 163.842 208.49C165.448 208.49 164.226 207.476 164.966 206.777C165.622 206.158 168.657 205.343 169.679 204.791C171.039 204.057 171.795 202.325 173.304 202.325C176.401 202.325 179.423 202.153 182.44 202.805C184.678 203.288 187.062 203.124 189.292 203.592C190.465 203.838 191.17 204.791 192.483 204.791C193.173 204.791 190.905 205.115 190.416 204.654C189.278 203.579 188.022 201.545 186.03 201.127C183.674 200.632 181.77 201.357 179.504 200.168C177.249 198.985 170.162 199.6 169.425 196.469C169.046 194.858 170.505 191.296 168.084 191.229C165.939 191.17 162.211 191.619 162.211 189.072C162.211 186.96 162.211 184.848 162.211 182.736C162.211 179.233 163.312 181.606 164.821 179.825C165.522 178.997 168.947 179.517 170.041 179.517C173.74 179.517 170.801 177.533 170.694 175.818C170.508 172.838 162.674 171.503 160.398 171.503C155.656 171.503 152.891 170.124 148.833 168.421C147.503 167.862 146.021 166.532 145.389 165.338C144.148 162.995 144.591 167.151 144.591 168.112C144.591 169.751 147.025 170.083 147.201 171.503C147.49 173.819 149.812 174.966 149.812 177.667" stroke="#DCDFE5" stroke-linecap="round" stroke-linejoin="round"/>
</svg>
